<svg width="24" height="24" viewBox="0 0 24 24" fill="currentcolor" xmlns="http://www.w3.org/2000/svg">
<path d="M9.697 3H11V5H10.303L7.303 7H5C4.724 7 4.5 7.224 4.5 7.5V18.5C4.5 18.776 4.724 19 5 19H19C19.276 19 19.5 18.776 19.5 18.5V10H21.5V18.5C21.5 19.881 20.381 21 19 21H5C3.619 21 2.5 19.881 2.5 18.5V7.5C2.5 6.119 3.619 5 5 5H6.697L9.697 3ZM12 10.5C10.895 10.5 10 11.395 10 12.5C10 13.605 10.895 14.5 12 14.5C13.105 14.5 14 13.605 14 12.5C14 11.395 13.105 10.5 12 10.5ZM8 12.5C8 10.291 9.791 8.5 12 8.5C14.209 8.5 16 10.291 16 12.5C16 14.709 14.209 16.5 12 16.5C9.791 16.5 8 14.709 8 12.5ZM17 2C17 3.657 15.657 5 14 5V6C15.657 6 17 7.343 17 9H18C18 7.343 19.343 6 21 6V5C19.343 5 18 3.657 18 2H17Z" fill="inherit"/>
</svg>
