<svg width="24" height="24" viewBox="0 0 24 24" fill="currentcolor" xmlns="http://www.w3.org/2000/svg">
<path d="M16.6968 5.4999C15.4748 5.43991 14.0178 6.0099 12.8068 7.6599L12.0018 8.74991L11.1958 7.6599C9.98382 6.0099 8.52582 5.43991 7.30382 5.4999C6.06082 5.56991 4.95482 6.2799 4.39382 7.4099C3.84182 8.5299 3.76082 10.1899 4.87282 12.2299C5.94682 14.1999 8.12982 16.4999 12.0018 18.8399C15.8718 16.4999 18.0538 14.1999 19.1278 12.2299C20.2388 10.1899 20.1578 8.5299 19.6048 7.4099C19.0438 6.2799 17.9388 5.56991 16.6968 5.4999ZM20.8838 13.1899C19.5328 15.6699 16.8828 18.3099 12.5048 20.8599L12.0018 21.1599L11.4978 20.8599C7.11882 18.3099 4.46882 15.6699 3.11582 13.1899C1.75582 10.6899 1.70582 8.32991 2.60182 6.51991C3.48882 4.72991 5.24882 3.60991 7.20282 3.50991C8.85382 3.4199 10.5708 4.06991 12.0008 5.51991C13.4298 4.06991 15.1468 3.4199 16.7968 3.50991C18.7508 3.60991 20.5108 4.72991 21.3978 6.51991C22.2938 8.32991 22.2438 10.6899 20.8838 13.1899Z" fill="inherit"/>
</svg>
