<svg width="24" height="24" viewBox="0 0 24 24" fill="curentcolor" xmlns="http://www.w3.org/2000/svg">
<path d="M12.0001 9.00005C9.79107 9.00005 8.00007 10.791 8.00007 13C8.00007 15.209 9.79107 17 12.0001 17C14.2091 17 16.0001 15.209 16.0001 13C16.0001 10.791 14.2091 9.00005 12.0001 9.00005ZM12.0001 15C10.8951 15 10.0001 14.105 10.0001 13C10.0001 11.895 10.8951 11 12.0001 11C13.1051 11 14.0001 11.895 14.0001 13C14.0001 14.105 13.1051 15 12.0001 15ZM12.0001 1.69604L0.62207 8.80705L1.68207 10.503L3.00007 9.67905V19.5C3.00007 20.881 4.11907 22 5.50007 22H18.5001C19.8811 22 21.0001 20.881 21.0001 19.5V9.67905L22.3181 10.503L23.3781 8.80705L12.0001 1.69604ZM19.0001 19.5C19.0001 19.776 18.7761 20 18.5001 20H5.50007C5.22407 20 5.00007 19.776 5.00007 19.5V8.42905L12.0001 4.05404L19.0001 8.42905V19.5Z" fill="inherit"/>
</svg>
