<svg width="24" height="24" viewBox="0 0 24 24" fill="curentcolor" xmlns="http://www.w3.org/2000/svg">
<path d="M19.9932 9.042C19.4802 5.017 16.0542 2 11.9962 2C7.93821 2 4.50621 5.021 3.99721 9.051L2.86621 18H7.10021C7.56321 20.282 9.58121 22 12.0002 22C14.4192 22 16.4372 20.282 16.9002 18H21.1362L19.9932 9.042ZM12.0002 20C10.6942 20 9.58321 19.165 9.17121 18H14.8292C14.4172 19.165 13.3062 20 12.0002 20ZM5.13421 16L5.98121 9.302C6.36421 6.272 8.94121 4 11.9962 4C15.0512 4 17.6232 6.268 18.0092 9.295L18.8642 16H5.13421Z" fill="inherit"/>
</svg>
