<svg width="24" height="24" viewBox="0 0 24 24" fill="currentcolor" xmlns="http://www.w3.org/2000/svg">
<path d="M4.49987 3.87988L8.93187 8.01988L7.56787 9.47988L5.49987 7.54988V15.9999C5.49987 17.0999 6.39587 17.9999 7.49987 17.9999H12.9999V19.9999H7.49987C5.29087 19.9999 3.49987 18.2099 3.49987 15.9999V7.54988L1.43187 9.47988L0.0678711 8.01988L4.49987 3.87988ZM16.4999 5.99988H10.9999V3.99988H16.4999C18.7089 3.99988 20.4999 5.78988 20.4999 7.99988V16.4499L22.5679 14.5199L23.9319 15.9799L19.4999 20.1199L15.0679 15.9799L16.4319 14.5199L18.4999 16.4499V7.99988C18.4999 6.89988 17.6039 5.99988 16.4999 5.99988Z" fill="inherit"/>
</svg>
