<svg width="24" height="24" viewBox="0 0 24 24" fill="currentcolor" xmlns="http://www.w3.org/2000/svg">
<path d="M23.9627 3.17843C16.7521 3.06951 12.6567 5.81542 9.74847 9.74639C6.85116 13.6458 5.44607 18.788 5.44607 23.8735H7.6245C7.6245 22.7767 7.70075 21.682 7.83145 20.6059H11.9814C16.4471 20.6059 20.1287 17.2489 20.6297 12.9225C23.734 10.963 24.1479 6.8371 23.9627 3.17843ZM16.3382 11.8921H14.7044V14.0706H16.3382C17.0244 14.0531 17.6453 13.9834 18.2117 13.8658C17.373 16.5104 14.9005 18.4274 11.9814 18.4274H8.22357C8.84442 15.6913 9.93364 13.1437 11.4912 11.0426C13.8439 7.87077 17.2532 5.69343 21.7843 5.3928C21.7298 8.71055 20.5862 11.8921 16.3382 11.8921ZM3.26764 9.71372V6.44607H0V4.26764H3.26764V1H5.44607V4.26764H8.71372V6.44607H5.44607V9.71372H3.26764Z" fill="inherit"/>
</svg>
